<svg xmlns="http://www.w3.org/2000/svg" viewBox="0 0 200 200"><defs><radialGradient id="bw" cx="45%" cy="40%" r="62%"><stop offset="0" stop-color="#FFFFFF"/><stop offset="0.85" stop-color="#F1EBE2"/><stop offset="1" stop-color="#CFC4B4"/></radialGradient><radialGradient id="gv" cx="42%" cy="38%" r="70%"><stop offset="0" stop-color="#F08A3A"/><stop offset="0.6" stop-color="#D9561B"/><stop offset="1" stop-color="#A63A0E"/></radialGradient><radialGradient id="ch" cx="42%" cy="38%" r="70%"><stop offset="0" stop-color="#E8A05A"/><stop offset="1" stop-color="#B65C24"/></radialGradient><radialGradient id="sh" cx="50%" cy="50%" r="50%"><stop offset="0.7" stop-color="#3a1408" stop-opacity="0.28"/><stop offset="1" stop-color="#3a1408" stop-opacity="0"/></radialGradient></defs><ellipse cx="104" cy="108" rx="96" ry="94" fill="url(#sh)"/><circle cx="100" cy="100" r="94" fill="url(#bw)"/><circle cx="100" cy="100" r="76" fill="url(#gv)"/><ellipse cx="150.7" cy="124.1" rx="4.3" ry="1.8" fill="#FFB25C" opacity="0.55"/><ellipse cx="88.7" cy="133.7" rx="3.9" ry="2" fill="#FFB25C" opacity="0.55"/><ellipse cx="107.4" cy="117.3" rx="4.6" ry="1.5" fill="#FFB25C" opacity="0.55"/><ellipse cx="119.3" cy="108.9" rx="2.2" ry="2.2" fill="#FFB25C" opacity="0.55"/><ellipse cx="82" cy="78.2" rx="4.8" ry="2.2" fill="#FFB25C" opacity="0.55"/><ellipse cx="112.4" cy="126.9" rx="4.5" ry="2.2" fill="#FFB25C" opacity="0.55"/><ellipse cx="73.9" cy="79.4" rx="3.6" ry="1.5" fill="#FFB25C" opacity="0.55"/><ellipse cx="145.1" cy="73.9" rx="2" ry="3.2" fill="#FFB25C" opacity="0.55"/><ellipse cx="60.5" cy="95.6" rx="2.2" ry="2.9" fill="#FFB25C" opacity="0.55"/><ellipse cx="151.9" cy="85" rx="3.9" ry="2.6" fill="#FFB25C" opacity="0.55"/><ellipse cx="121" cy="95.7" rx="3.4" ry="1.8" fill="#FFB25C" opacity="0.55"/><ellipse cx="154.9" cy="97.4" rx="5" ry="2.3" fill="#FFB25C" opacity="0.55"/><ellipse cx="88.7" cy="109.9" rx="4.4" ry="1.7" fill="#FFB25C" opacity="0.55"/><ellipse cx="107.4" cy="155.4" rx="2.6" ry="2.1" fill="#FFB25C" opacity="0.55"/><g transform="rotate(6.9 100.7 122)"><rect x="91.7" y="115" width="18" height="14" rx="6" fill="url(#ch)"/><rect x="94.7" y="117" width="7" height="3" rx="1.5" fill="#F7B27A" opacity="0.6"/></g><g transform="rotate(58.1 121.6 80.5)"><rect x="112.6" y="73.5" width="18" height="14" rx="6" fill="url(#ch)"/><rect x="115.6" y="75.5" width="7" height="3" rx="1.5" fill="#F7B27A" opacity="0.6"/></g><g transform="rotate(85.8 110.8 103.2)"><rect x="101.8" y="96.2" width="18" height="14" rx="6" fill="url(#ch)"/><rect x="104.8" y="98.2" width="7" height="3" rx="1.5" fill="#F7B27A" opacity="0.6"/></g><g transform="rotate(13.8 117.3 66.8)"><rect x="108.3" y="59.8" width="18" height="14" rx="6" fill="url(#ch)"/><rect x="111.3" y="61.8" width="7" height="3" rx="1.5" fill="#F7B27A" opacity="0.6"/></g><g transform="rotate(65.6 88 63.3)"><rect x="79" y="56.3" width="18" height="14" rx="6" fill="url(#ch)"/><rect x="82" y="58.3" width="7" height="3" rx="1.5" fill="#F7B27A" opacity="0.6"/></g><g transform="rotate(83.2 106.7 63)"><rect x="97.7" y="56" width="18" height="14" rx="6" fill="url(#ch)"/><rect x="100.7" y="58" width="7" height="3" rx="1.5" fill="#F7B27A" opacity="0.6"/></g><g transform="rotate(13.1 130.2 123.3)"><rect x="121.2" y="116.3" width="18" height="14" rx="6" fill="url(#ch)"/><rect x="124.2" y="118.3" width="7" height="3" rx="1.5" fill="#F7B27A" opacity="0.6"/></g><g transform="rotate(74.2 136.2 106.9)"><rect x="127.2" y="99.9" width="18" height="14" rx="6" fill="url(#ch)"/><rect x="130.2" y="101.9" width="7" height="3" rx="1.5" fill="#F7B27A" opacity="0.6"/></g><path d="M100 100m-6 0a6 6 0 1 1 12 0a12 12 0 1 1 -24 0a18 18 0 1 1 36 0a24 24 0 1 1 -48 0" fill="none" stroke="#FFF4E6" stroke-width="3.5" stroke-linecap="round" opacity="0.9"/><g transform="translate(52.4 67.6) rotate(234.9) scale(0.8)"><path d="M0 -6C4 -4 5 2 0 7C-5 2 -4 -4 0 -6z" fill="#2F7D32"/><path d="M0 -5V6" stroke="#1F5A22" stroke-width="0.6"/></g><g transform="translate(119.8 135.3) rotate(324.7) scale(0.8)"><path d="M0 -6C4 -4 5 2 0 7C-5 2 -4 -4 0 -6z" fill="#2F7D32"/><path d="M0 -5V6" stroke="#1F5A22" stroke-width="0.6"/></g><g transform="translate(93.9 148.6) rotate(274) scale(0.8)"><path d="M0 -6C4 -4 5 2 0 7C-5 2 -4 -4 0 -6z" fill="#2F7D32"/><path d="M0 -5V6" stroke="#1F5A22" stroke-width="0.6"/></g><g transform="translate(95.1 137.9) rotate(244.6) scale(0.8)"><path d="M0 -6C4 -4 5 2 0 7C-5 2 -4 -4 0 -6z" fill="#2F7D32"/><path d="M0 -5V6" stroke="#1F5A22" stroke-width="0.6"/></g><g transform="translate(54.8 80.9) rotate(142.8) scale(0.8)"><path d="M0 -6C4 -4 5 2 0 7C-5 2 -4 -4 0 -6z" fill="#2F7D32"/><path d="M0 -5V6" stroke="#1F5A22" stroke-width="0.6"/></g><g transform="translate(94.2 44.5) rotate(50.6) scale(0.8)"><path d="M0 -6C4 -4 5 2 0 7C-5 2 -4 -4 0 -6z" fill="#2F7D32"/><path d="M0 -5V6" stroke="#1F5A22" stroke-width="0.6"/></g><g transform="translate(71.8 108.3) rotate(49.7) scale(0.8)"><path d="M0 -6C4 -4 5 2 0 7C-5 2 -4 -4 0 -6z" fill="#2F7D32"/><path d="M0 -5V6" stroke="#1F5A22" stroke-width="0.6"/></g><g transform="translate(97.6 48.6) rotate(314.3) scale(0.8)"><path d="M0 -6C4 -4 5 2 0 7C-5 2 -4 -4 0 -6z" fill="#2F7D32"/><path d="M0 -5V6" stroke="#1F5A22" stroke-width="0.6"/></g><g transform="translate(74.7 139.7) rotate(219.9) scale(0.8)"><path d="M0 -6C4 -4 5 2 0 7C-5 2 -4 -4 0 -6z" fill="#2F7D32"/><path d="M0 -5V6" stroke="#1F5A22" stroke-width="0.6"/></g><g transform="translate(111.8 92.1) rotate(272.4) scale(0.8)"><path d="M0 -6C4 -4 5 2 0 7C-5 2 -4 -4 0 -6z" fill="#2F7D32"/><path d="M0 -5V6" stroke="#1F5A22" stroke-width="0.6"/></g><g transform="translate(85 116.2) rotate(97.8) scale(0.8)"><path d="M0 -6C4 -4 5 2 0 7C-5 2 -4 -4 0 -6z" fill="#2F7D32"/><path d="M0 -5V6" stroke="#1F5A22" stroke-width="0.6"/></g><g transform="translate(124 55.7) rotate(304.7) scale(0.8)"><path d="M0 -6C4 -4 5 2 0 7C-5 2 -4 -4 0 -6z" fill="#2F7D32"/><path d="M0 -5V6" stroke="#1F5A22" stroke-width="0.6"/></g><g transform="translate(118.5 73.7) rotate(86.6) scale(0.8)"><path d="M0 -6C4 -4 5 2 0 7C-5 2 -4 -4 0 -6z" fill="#2F7D32"/><path d="M0 -5V6" stroke="#1F5A22" stroke-width="0.6"/></g><g transform="translate(89.1 111.7) rotate(320.6) scale(0.8)"><path d="M0 -6C4 -4 5 2 0 7C-5 2 -4 -4 0 -6z" fill="#2F7D32"/><path d="M0 -5V6" stroke="#1F5A22" stroke-width="0.6"/></g><g transform="translate(146.5 103) rotate(224.8) scale(0.8)"><path d="M0 -6C4 -4 5 2 0 7C-5 2 -4 -4 0 -6z" fill="#2F7D32"/><path d="M0 -5V6" stroke="#1F5A22" stroke-width="0.6"/></g><g transform="translate(53.3 106.2) rotate(74.8) scale(0.8)"><path d="M0 -6C4 -4 5 2 0 7C-5 2 -4 -4 0 -6z" fill="#2F7D32"/><path d="M0 -5V6" stroke="#1F5A22" stroke-width="0.6"/></g><ellipse cx="72" cy="52" rx="22" ry="6" fill="#FFFFFF" opacity="0.25" transform="rotate(-30 72 52)"/></svg>