<svg xmlns="http://www.w3.org/2000/svg" viewBox="0 0 200 200"><defs><radialGradient id="wb" cx="40%" cy="35%" r="68%"><stop offset="0" stop-color="#E2B27E"/><stop offset="0.7" stop-color="#B97C45"/><stop offset="1" stop-color="#7D4A20"/></radialGradient><radialGradient id="tm" cx="42%" cy="38%" r="70%"><stop offset="0" stop-color="#F0563F"/><stop offset="1" stop-color="#B8241A"/></radialGradient><radialGradient id="sh" cx="50%" cy="50%" r="50%"><stop offset="0.7" stop-color="#3a1408" stop-opacity="0.28"/><stop offset="1" stop-color="#3a1408" stop-opacity="0"/></radialGradient></defs><ellipse cx="104" cy="108" rx="96" ry="94" fill="url(#sh)"/><circle cx="100" cy="100" r="94" fill="url(#wb)"/><circle cx="100" cy="100" r="78" fill="#2F5E25"/><g transform="translate(96.3 129.4) rotate(29.2) scale(3.9)"><path d="M0 -6C4 -4 5 2 0 7C-5 2 -4 -4 0 -6z" fill="#4E9E3C"/><path d="M0 -5V6" stroke="#C9E8A8" stroke-width="0.6"/></g><g transform="translate(149.9 125) rotate(285.9) scale(4.2)"><path d="M0 -6C4 -4 5 2 0 7C-5 2 -4 -4 0 -6z" fill="#7CC25A"/><path d="M0 -5V6" stroke="#C9E8A8" stroke-width="0.6"/></g><g transform="translate(136.8 107.8) rotate(130.6) scale(3.9)"><path d="M0 -6C4 -4 5 2 0 7C-5 2 -4 -4 0 -6z" fill="#4E9E3C"/><path d="M0 -5V6" stroke="#C9E8A8" stroke-width="0.6"/></g><g transform="translate(95.4 129.3) rotate(46.9) scale(4.3)"><path d="M0 -6C4 -4 5 2 0 7C-5 2 -4 -4 0 -6z" fill="#3F8F3A"/><path d="M0 -5V6" stroke="#C9E8A8" stroke-width="0.6"/></g><g transform="translate(92.8 145.7) rotate(102.1) scale(4)"><path d="M0 -6C4 -4 5 2 0 7C-5 2 -4 -4 0 -6z" fill="#7CC25A"/><path d="M0 -5V6" stroke="#C9E8A8" stroke-width="0.6"/></g><g transform="translate(99.7 98.2) rotate(24.4) scale(4)"><path d="M0 -6C4 -4 5 2 0 7C-5 2 -4 -4 0 -6z" fill="#7CC25A"/><path d="M0 -5V6" stroke="#C9E8A8" stroke-width="0.6"/></g><g transform="translate(58.8 78.2) rotate(193.9) scale(3.6)"><path d="M0 -6C4 -4 5 2 0 7C-5 2 -4 -4 0 -6z" fill="#7CC25A"/><path d="M0 -5V6" stroke="#C9E8A8" stroke-width="0.6"/></g><g transform="translate(134.3 124.7) rotate(178.3) scale(4.1)"><path d="M0 -6C4 -4 5 2 0 7C-5 2 -4 -4 0 -6z" fill="#7CC25A"/><path d="M0 -5V6" stroke="#C9E8A8" stroke-width="0.6"/></g><g transform="translate(118.5 142.9) rotate(210.3) scale(3.6)"><path d="M0 -6C4 -4 5 2 0 7C-5 2 -4 -4 0 -6z" fill="#5BAF45"/><path d="M0 -5V6" stroke="#C9E8A8" stroke-width="0.6"/></g><g transform="translate(74.2 59.7) rotate(357.3) scale(4.3)"><path d="M0 -6C4 -4 5 2 0 7C-5 2 -4 -4 0 -6z" fill="#7CC25A"/><path d="M0 -5V6" stroke="#C9E8A8" stroke-width="0.6"/></g><g transform="translate(91.7 113) rotate(275) scale(4.2)"><path d="M0 -6C4 -4 5 2 0 7C-5 2 -4 -4 0 -6z" fill="#4E9E3C"/><path d="M0 -5V6" stroke="#C9E8A8" stroke-width="0.6"/></g><g transform="translate(68.3 129.5) rotate(213.1) scale(3.3)"><path d="M0 -6C4 -4 5 2 0 7C-5 2 -4 -4 0 -6z" fill="#3F8F3A"/><path d="M0 -5V6" stroke="#C9E8A8" stroke-width="0.6"/></g><g transform="translate(87.8 118.4) rotate(112.4) scale(3.3)"><path d="M0 -6C4 -4 5 2 0 7C-5 2 -4 -4 0 -6z" fill="#7CC25A"/><path d="M0 -5V6" stroke="#C9E8A8" stroke-width="0.6"/></g><g transform="translate(96.8 80.6) rotate(47) scale(4.1)"><path d="M0 -6C4 -4 5 2 0 7C-5 2 -4 -4 0 -6z" fill="#3F8F3A"/><path d="M0 -5V6" stroke="#C9E8A8" stroke-width="0.6"/></g><g transform="translate(92.7 61.5) rotate(223.9) scale(4.2)"><path d="M0 -6C4 -4 5 2 0 7C-5 2 -4 -4 0 -6z" fill="#3F8F3A"/><path d="M0 -5V6" stroke="#C9E8A8" stroke-width="0.6"/></g><g transform="translate(145 115.3) rotate(10.2) scale(3.8)"><path d="M0 -6C4 -4 5 2 0 7C-5 2 -4 -4 0 -6z" fill="#7CC25A"/><path d="M0 -5V6" stroke="#C9E8A8" stroke-width="0.6"/></g><g transform="translate(131.2 138.9) rotate(83) scale(3.9)"><path d="M0 -6C4 -4 5 2 0 7C-5 2 -4 -4 0 -6z" fill="#7CC25A"/><path d="M0 -5V6" stroke="#C9E8A8" stroke-width="0.6"/></g><g transform="translate(151.1 86.9) rotate(259.1) scale(4.6)"><path d="M0 -6C4 -4 5 2 0 7C-5 2 -4 -4 0 -6z" fill="#5BAF45"/><path d="M0 -5V6" stroke="#C9E8A8" stroke-width="0.6"/></g><g transform="translate(141.2 96.9) rotate(179.5) scale(3.1)"><path d="M0 -6C4 -4 5 2 0 7C-5 2 -4 -4 0 -6z" fill="#4E9E3C"/><path d="M0 -5V6" stroke="#C9E8A8" stroke-width="0.6"/></g><g transform="translate(138 109.7) rotate(359.4) scale(3.2)"><path d="M0 -6C4 -4 5 2 0 7C-5 2 -4 -4 0 -6z" fill="#4E9E3C"/><path d="M0 -5V6" stroke="#C9E8A8" stroke-width="0.6"/></g><g transform="translate(86 67.5) rotate(267) scale(3.8)"><path d="M0 -6C4 -4 5 2 0 7C-5 2 -4 -4 0 -6z" fill="#5BAF45"/><path d="M0 -5V6" stroke="#C9E8A8" stroke-width="0.6"/></g><g transform="translate(127.4 56.2) rotate(128) scale(4.5)"><path d="M0 -6C4 -4 5 2 0 7C-5 2 -4 -4 0 -6z" fill="#7CC25A"/><path d="M0 -5V6" stroke="#C9E8A8" stroke-width="0.6"/></g><g transform="translate(102.3 116.9) rotate(347.7) scale(4.4)"><path d="M0 -6C4 -4 5 2 0 7C-5 2 -4 -4 0 -6z" fill="#7CC25A"/><path d="M0 -5V6" stroke="#C9E8A8" stroke-width="0.6"/></g><g transform="translate(148.4 109.3) rotate(172.4) scale(3.4)"><path d="M0 -6C4 -4 5 2 0 7C-5 2 -4 -4 0 -6z" fill="#4E9E3C"/><path d="M0 -5V6" stroke="#C9E8A8" stroke-width="0.6"/></g><g transform="translate(52.3 98) rotate(46.9) scale(3.2)"><path d="M0 -6C4 -4 5 2 0 7C-5 2 -4 -4 0 -6z" fill="#3F8F3A"/><path d="M0 -5V6" stroke="#C9E8A8" stroke-width="0.6"/></g><g transform="translate(148.6 120.1) rotate(200.3) scale(3.5)"><path d="M0 -6C4 -4 5 2 0 7C-5 2 -4 -4 0 -6z" fill="#3F8F3A"/><path d="M0 -5V6" stroke="#C9E8A8" stroke-width="0.6"/></g><g transform="translate(85.1 123.7) rotate(125.3) scale(3.7)"><path d="M0 -6C4 -4 5 2 0 7C-5 2 -4 -4 0 -6z" fill="#3F8F3A"/><path d="M0 -5V6" stroke="#C9E8A8" stroke-width="0.6"/></g><g transform="translate(116 50.8) rotate(153.6) scale(3.2)"><path d="M0 -6C4 -4 5 2 0 7C-5 2 -4 -4 0 -6z" fill="#4E9E3C"/><path d="M0 -5V6" stroke="#C9E8A8" stroke-width="0.6"/></g><g transform="translate(85.9 118.5) rotate(163.2) scale(3.2)"><path d="M0 -6C4 -4 5 2 0 7C-5 2 -4 -4 0 -6z" fill="#5BAF45"/><path d="M0 -5V6" stroke="#C9E8A8" stroke-width="0.6"/></g><g transform="translate(126.3 86.5) rotate(3.8) scale(4.6)"><path d="M0 -6C4 -4 5 2 0 7C-5 2 -4 -4 0 -6z" fill="#7CC25A"/><path d="M0 -5V6" stroke="#C9E8A8" stroke-width="0.6"/></g><g transform="translate(105.6 104) rotate(75.6) scale(4)"><path d="M0 -6C4 -4 5 2 0 7C-5 2 -4 -4 0 -6z" fill="#7CC25A"/><path d="M0 -5V6" stroke="#C9E8A8" stroke-width="0.6"/></g><g transform="translate(115.9 113) rotate(144) scale(4.5)"><path d="M0 -6C4 -4 5 2 0 7C-5 2 -4 -4 0 -6z" fill="#4E9E3C"/><path d="M0 -5V6" stroke="#C9E8A8" stroke-width="0.6"/></g><g transform="translate(125.4 105.6) rotate(335.7) scale(3.4)"><path d="M0 -6C4 -4 5 2 0 7C-5 2 -4 -4 0 -6z" fill="#7CC25A"/><path d="M0 -5V6" stroke="#C9E8A8" stroke-width="0.6"/></g><g transform="translate(105.8 157.2) rotate(198.7) scale(4.4)"><path d="M0 -6C4 -4 5 2 0 7C-5 2 -4 -4 0 -6z" fill="#7CC25A"/><path d="M0 -5V6" stroke="#C9E8A8" stroke-width="0.6"/></g><g transform="translate(94.2 122.7) rotate(269) scale(3.6)"><path d="M0 -6C4 -4 5 2 0 7C-5 2 -4 -4 0 -6z" fill="#7CC25A"/><path d="M0 -5V6" stroke="#C9E8A8" stroke-width="0.6"/></g><g transform="translate(114.6 121.6) rotate(97.7) scale(3.7)"><path d="M0 -6C4 -4 5 2 0 7C-5 2 -4 -4 0 -6z" fill="#7CC25A"/><path d="M0 -5V6" stroke="#C9E8A8" stroke-width="0.6"/></g><g transform="translate(75.8 147.6) rotate(346.2) scale(3.2)"><path d="M0 -6C4 -4 5 2 0 7C-5 2 -4 -4 0 -6z" fill="#2E7A31"/><path d="M0 -5V6" stroke="#C9E8A8" stroke-width="0.6"/></g><g transform="translate(115.5 52.6) rotate(56.2) scale(3.1)"><path d="M0 -6C4 -4 5 2 0 7C-5 2 -4 -4 0 -6z" fill="#7CC25A"/><path d="M0 -5V6" stroke="#C9E8A8" stroke-width="0.6"/></g><g transform="translate(133.5 73) rotate(112.4) scale(3.6)"><path d="M0 -6C4 -4 5 2 0 7C-5 2 -4 -4 0 -6z" fill="#3F8F3A"/><path d="M0 -5V6" stroke="#C9E8A8" stroke-width="0.6"/></g><g transform="translate(57.1 71.9) rotate(346.3) scale(3.6)"><path d="M0 -6C4 -4 5 2 0 7C-5 2 -4 -4 0 -6z" fill="#4E9E3C"/><path d="M0 -5V6" stroke="#C9E8A8" stroke-width="0.6"/></g><g transform="translate(136 85.2) rotate(32.4) scale(3.5)"><path d="M0 -6C4 -4 5 2 0 7C-5 2 -4 -4 0 -6z" fill="#5BAF45"/><path d="M0 -5V6" stroke="#C9E8A8" stroke-width="0.6"/></g><g transform="translate(49.3 105) rotate(184.7) scale(3.1)"><path d="M0 -6C4 -4 5 2 0 7C-5 2 -4 -4 0 -6z" fill="#5BAF45"/><path d="M0 -5V6" stroke="#C9E8A8" stroke-width="0.6"/></g><g transform="translate(81.1 134) rotate(203.7) scale(4.6)"><path d="M0 -6C4 -4 5 2 0 7C-5 2 -4 -4 0 -6z" fill="#4E9E3C"/><path d="M0 -5V6" stroke="#C9E8A8" stroke-width="0.6"/></g><g transform="translate(129.4 123.9) rotate(129.2) scale(4.4)"><path d="M0 -6C4 -4 5 2 0 7C-5 2 -4 -4 0 -6z" fill="#2E7A31"/><path d="M0 -5V6" stroke="#C9E8A8" stroke-width="0.6"/></g><circle cx="79" cy="124.3" r="10" fill="url(#tm)"/><circle cx="79" cy="124.3" r="5" fill="#F7A49A" opacity="0.7"/><circle cx="89.5" cy="65.7" r="10" fill="url(#tm)"/><circle cx="89.5" cy="65.7" r="5" fill="#F7A49A" opacity="0.7"/><circle cx="139.8" cy="90.7" r="10" fill="url(#tm)"/><circle cx="139.8" cy="90.7" r="5" fill="#F7A49A" opacity="0.7"/><circle cx="119.3" cy="63.1" r="10" fill="url(#tm)"/><circle cx="119.3" cy="63.1" r="5" fill="#F7A49A" opacity="0.7"/><circle cx="58.3" cy="99.2" r="10" fill="url(#tm)"/><circle cx="58.3" cy="99.2" r="5" fill="#F7A49A" opacity="0.7"/><circle cx="113.9" cy="80.3" r="10" fill="url(#tm)"/><circle cx="113.9" cy="80.3" r="5" fill="#F7A49A" opacity="0.7"/><circle cx="78.1" cy="121" r="9" fill="#E9F5C9" stroke="#5E9E3A" stroke-width="2"/><circle cx="78.1" cy="121" r="3" fill="#CDE69B"/><circle cx="117.8" cy="95.3" r="9" fill="#E9F5C9" stroke="#5E9E3A" stroke-width="2"/><circle cx="117.8" cy="95.3" r="3" fill="#CDE69B"/><circle cx="121.3" cy="72" r="9" fill="#E9F5C9" stroke="#5E9E3A" stroke-width="2"/><circle cx="121.3" cy="72" r="3" fill="#CDE69B"/><circle cx="123.9" cy="130.1" r="9" fill="#E9F5C9" stroke="#5E9E3A" stroke-width="2"/><circle cx="123.9" cy="130.1" r="3" fill="#CDE69B"/><circle cx="115.5" cy="59.9" r="9" fill="#E9F5C9" stroke="#5E9E3A" stroke-width="2"/><circle cx="115.5" cy="59.9" r="3" fill="#CDE69B"/><circle cx="130.5" cy="130.7" r="9" fill="#E9F5C9" stroke="#5E9E3A" stroke-width="2"/><circle cx="130.5" cy="130.7" r="3" fill="#CDE69B"/><circle cx="140" cy="86.3" r="8" fill="none" stroke="#B25FA0" stroke-width="2"/><circle cx="126.7" cy="110" r="8" fill="none" stroke="#B25FA0" stroke-width="2"/><circle cx="68.6" cy="77.9" r="8" fill="none" stroke="#B25FA0" stroke-width="2"/><circle cx="90.1" cy="58.7" r="8" fill="none" stroke="#B25FA0" stroke-width="2"/><circle cx="71.7" cy="101" r="8" fill="none" stroke="#B25FA0" stroke-width="2"/></svg>