<svg xmlns="http://www.w3.org/2000/svg" viewBox="0 0 120 120"><g stroke="#141414" stroke-width="4" stroke-linejoin="round" stroke-linecap="round"><path d="M46 34c-5-6 5-9 0-16M60 34c-5-6 5-9 0-16M74 34c-5-6 5-9 0-16" fill="none"/><path d="M14 58h92c0 26-20 42-46 42S14 84 14 58z" fill="#CFD6DE"/><ellipse cx="60" cy="58" rx="46" ry="12" fill="#F5B82E"/><path d="M38 56h.01M54 61h.01M70 55h.01M84 60h.01" stroke-width="5"/><path d="M46 54c3-4 8-4 9 0-3 3-6 3-9 0zM74 60c3-4 8-4 9 0-3 3-6 3-9 0z" fill="#1FA855" stroke-width="2.5"/><path d="M60 52l6 6" stroke="#E63B2E" stroke-width="4"/><path d="M24 74c8 12 22 18 36 18" fill="none" stroke="#FFFFFF" stroke-width="4"/></g></svg>
